<?xml version="1.0" encoding="UTF-8" standalone="no"?>
<svg
   viewBox="0 0 18 18"
   width="18"
   height="18"
   version="1.1"
   id="svg4"
   sodipodi:docname="instagram.svg"
   xmlns:inkscape="http://www.inkscape.org/namespaces/inkscape"
   xmlns:sodipodi="http://sodipodi.sourceforge.net/DTD/sodipodi-0.dtd"
   xmlns="http://www.w3.org/2000/svg"
   xmlns:svg="http://www.w3.org/2000/svg">
  <defs
     id="defs8" />
  <sodipodi:namedview
     id="namedview6"
     pagecolor="#ffffff"
     bordercolor="#111111"
     borderopacity="1"
     inkscape:showpageshadow="0"
     inkscape:pageopacity="0"
     inkscape:pagecheckerboard="1"
     inkscape:deskcolor="#d1d1d1"
     showgrid="false" />
  <path
     d="M 5,0 C 2.239,0 0,2.239 0,5 v 8 c 0,2.761 2.239,5 5,5 h 8 c 2.761,0 5,-2.239 5,-5 V 5 C 18,2.239 15.761,0 13,0 Z m 10,2 c 0.552,0 1,0.448 1,1 0,0.552 -0.448,1 -1,1 C 14.448,4 14,3.552 14,3 14,2.448 14.448,2 15,2 Z M 9,4 c 2.761,0 5,2.239 5,5 0,2.761 -2.239,5 -5,5 C 6.239,14 4,11.761 4,9 4,6.239 6.239,4 9,4 Z M 9,6 A 3,3 0 0 0 6,9 3,3 0 0 0 9,12 3,3 0 0 0 12,9 3,3 0 0 0 9,6 Z"
     id="path2"
     style="fill:#ffffff;fill-opacity:1" />
</svg>
