<?xml version="1.0" encoding="UTF-8" standalone="no"?>
<svg
   viewBox="0 0 20 16.000999"
   width="20"
   height="16.000999"
   version="1.1"
   id="svg235"
   sodipodi:docname="twitter.svg"
   xmlns:inkscape="http://www.inkscape.org/namespaces/inkscape"
   xmlns:sodipodi="http://sodipodi.sourceforge.net/DTD/sodipodi-0.dtd"
   xmlns="http://www.w3.org/2000/svg"
   xmlns:svg="http://www.w3.org/2000/svg">
  <defs
     id="defs239" />
  <sodipodi:namedview
     id="namedview237"
     pagecolor="#ffffff"
     bordercolor="#111111"
     borderopacity="1"
     inkscape:showpageshadow="0"
     inkscape:pageopacity="0"
     inkscape:pagecheckerboard="1"
     inkscape:deskcolor="#d1d1d1"
     showgrid="false" />
  <path
     d="M 20,-7.2479248e-8 C 19.22,0.46299993 17.655,1.0939999 16.735,1.2759999 c -0.027,0.007 -0.049,0.016 -0.075,0.023 C 15.847,0.49699993 14.733,-7.2479248e-8 13.5,-7.2479248e-8 11.015,-7.2479248e-8 9,2.0149999 9,4.4999999 c 0,0.131 -0.011,0.372 0,0.5 -3.353,0 -5.905,-1.756 -7.735,-3.99999997 C 1.066,1.4999999 0.979,2.2899999 0.979,3.0319999 c 0,1.401 1.095,2.777 2.8,3.63 -0.314,0.081 -0.66,0.139 -1.02,0.139 -0.581,0 -1.196,-0.153 -1.759,-0.617 0,0.017 0,0.033 0,0.051 0,1.958 2.078,3.291 3.926,3.662 C 4.551,10.118 3.795,10.14 3.426,10.14 3.166,10.14 2.246,10.021 2,9.9749999 2.514,11.58 4.368,12.482 6.135,12.514 4.753,13.598 3.794,14 0.964,14 H 0 c 1.788,1.146 4.065,2.001 6.347,2.001 7.43,0 11.653,-5.663 11.653,-11.0010001 0,-0.086 -0.002,-0.266 -0.005,-0.447 0,-0.018 0.005,-0.035 0.005,-0.053 0,-0.027 -0.008,-0.053 -0.008,-0.08 -0.003,-0.136 -0.006,-0.263 -0.009,-0.329 0.79,-0.57 1.475,-1.281 2.017,-2.091 -0.725,0.322 -1.503,0.538 -2.32,0.636 0.834,-0.5 2.019,-1.69199997 2.32,-2.635999972479248 z"
     id="path233"
     style="fill:#1da1f2;fill-opacity:1" />
</svg>
